<?xml version="1.0" encoding="utf-8"?>
<!-- Generator: Adobe Illustrator 19.0.1, SVG Export Plug-In . SVG Version: 6.00 Build 0)  -->
<svg version="1.1" id="Calque_1" xmlns="http://www.w3.org/2000/svg" xmlns:xlink="http://www.w3.org/1999/xlink" x="0px" y="0px"
	 viewBox="-774.8 532.5 178.3 28.8" style="enable-background:new -774.8 532.5 178.3 28.8;" xml:space="preserve">
<style type="text/css">
	.st0{enable-background:new    ;}
	.st1{fill:#373E4C;}
</style>
<g class="st0">
	<path class="st1" d="M-768.6,555.7c-1.6,0-3.9-0.2-5.5-0.7c-0.4-0.1-0.6-0.3-0.6-0.7v-2.4c0-0.3,0.2-0.6,0.6-0.6h0.1
		c1.6,0.2,4.1,0.4,5.1,0.4c1.4,0,1.8-0.4,1.8-1.2c0-0.4-0.3-0.8-1.1-1.3l-3.9-2.2c-1.7-1-2.7-2.5-2.7-4.4c0-3,2-4.7,6.1-4.7
		c2.4,0,3.8,0.3,5.3,0.7c0.4,0.1,0.6,0.3,0.6,0.7v2.4c0,0.4-0.2,0.6-0.5,0.6c-0.1,0-0.1,0-0.1,0c-0.9-0.1-3.5-0.4-5-0.4
		c-1.2,0-1.6,0.2-1.6,0.9c0,0.5,0.3,0.7,0.9,1l3.7,2.1c2.5,1.4,3,3,3,4.6C-762.2,553.5-764.2,555.7-768.6,555.7z"/>
	<path class="st1" d="M-745.5,561.3h-3.6c-0.3,0-0.6-0.3-0.6-0.6v-5.2c-0.9,0.1-1.9,0.2-2.5,0.2c-5.1,0-7.5-3-7.5-7.7v-2.3
		c0-4.9,2.7-7.7,7.5-7.7c2.3,0,4.6,0.4,6.4,0.8c0.8,0.2,0.9,0.4,0.9,0.9v21C-744.8,561.1-745.1,561.3-745.5,561.3z M-749.7,542.2
		c-0.6-0.1-1.5-0.1-2.5-0.1c-2.1,0-2.7,1.5-2.7,3.7v2.3c0,2.1,0.6,3.7,2.7,3.7c0.7,0,1.7-0.1,2.5-0.2V542.2z"/>
	<path class="st1" d="M-733.8,555.7h-0.4c-1.9,0-7.2-0.6-7.2-7.6v-9.2c0-0.3,0.2-0.6,0.6-0.6h3.7c0.3,0,0.6,0.3,0.6,0.6v9.2
		c0,2.8,0.9,3.5,2.3,3.5h0.4c1.4,0,2.3-0.7,2.3-3.5v-9.2c0-0.3,0.3-0.6,0.6-0.6h3.7c0.3,0,0.6,0.3,0.6,0.6v9.2
		C-726.6,555.2-731.9,555.7-733.8,555.7z"/>
	<path class="st1" d="M-709.8,555c-1.7,0.4-4,0.8-6.4,0.8c-4.9,0-7.5-2.8-7.5-7.7v-2.3c0-4.9,2.7-7.7,7.5-7.7c2.3,0,4.6,0.4,6.4,0.8
		c0.8,0.2,0.9,0.4,0.9,0.9v14.4C-708.8,554.6-709,554.8-709.8,555z M-713.7,542.2c-0.6-0.1-1.5-0.1-2.5-0.1c-2.1,0-2.7,1.5-2.7,3.7
		v2.3c0,2.1,0.6,3.7,2.7,3.7c1,0,1.9-0.1,2.5-0.2V542.2z"/>
	<path class="st1" d="M-697.7,542.1c-0.9,0-2.1,0.1-2.7,0.2v12.6c0,0.3-0.3,0.6-0.6,0.6h-3.6c-0.3,0-0.6-0.3-0.6-0.6v-15
		c0-0.4,0.2-0.7,0.9-1c1.9-0.6,3.8-0.9,6.6-0.9c0.4,0,0.8,0.2,0.8,0.6v2.9C-696.9,541.9-697.1,542.1-697.7,542.1z"/>
	<path class="st1" d="M-680.5,548.4h-9.6v0.1c0,1.7,0.7,3.3,3.1,3.3c1.9,0,4.6-0.1,5.8-0.3h0.1c0.3,0,0.6,0.2,0.6,0.5v2.3
		c0,0.5-0.1,0.7-0.6,0.8c-1.9,0.5-3.5,0.7-6.1,0.7c-3.6,0-7.5-1.9-7.5-7.7V546c0-4.8,2.8-7.9,7.6-7.9c4.9,0,7.4,3.4,7.4,7.9v1.7
		C-679.8,548.1-680.1,548.4-680.5,548.4z M-684.6,545.3c0-2.2-1-3.3-2.7-3.3c-1.6,0-2.8,1.1-2.8,3.3v0.1h5.5V545.3z"/>
	<path class="st1" d="M-658.6,555.3c-0.8,0.2-2.2,0.4-4,0.4c-4.2,0-7-2.7-7-7.6v-2.5c0-4.9,2.8-7.6,7-7.6c1.8,0,3.1,0.2,4,0.5
		c0.5,0.1,0.6,0.2,0.6,0.7v2.7c0,0.3-0.3,0.5-0.6,0.5c0,0,0,0-0.1,0c-1.1-0.1-2-0.2-3.7-0.2c-1.3,0-2.5,0.8-2.5,3.5v2.5
		c0,2.7,1.1,3.5,2.5,3.5c1.7,0,2.5-0.1,3.7-0.2c0,0,0,0,0.1,0c0.3,0,0.6,0.2,0.6,0.5v2.7C-658,555.1-658.2,555.2-658.6,555.3z"/>
	<path class="st1" d="M-650.7,555.5h-3.7c-0.3,0-0.6-0.3-0.6-0.6v-21.8c0-0.3,0.3-0.6,0.6-0.6h3.7c0.3,0,0.6,0.3,0.6,0.6v21.8
		C-650.1,555.2-650.3,555.5-650.7,555.5z"/>
	<path class="st1" d="M-639.4,555.7c-4.9,0-7.5-3-7.5-7.8v-2.1c0-4.8,2.7-7.8,7.5-7.8s7.5,3,7.5,7.8v2.1
		C-631.9,552.7-634.6,555.7-639.4,555.7z M-636.8,545.8c0-2.4-0.9-3.7-2.7-3.7c-1.8,0-2.7,1.2-2.7,3.7v2.1c0,2.4,1,3.7,2.7,3.7
		c1.7,0,2.7-1.3,2.7-3.7V545.8z"/>
	<path class="st1" d="M-621.4,555.7h-0.4c-1.9,0-7.2-0.6-7.2-7.6v-9.2c0-0.3,0.2-0.6,0.6-0.6h3.7c0.3,0,0.6,0.3,0.6,0.6v9.2
		c0,2.8,0.9,3.5,2.3,3.5h0.4c1.4,0,2.3-0.7,2.3-3.5v-9.2c0-0.3,0.3-0.6,0.6-0.6h3.7c0.3,0,0.6,0.3,0.6,0.6v9.2
		C-614.2,555.2-619.5,555.7-621.4,555.7z"/>
	<path class="st1" d="M-597.4,555c-1.7,0.4-4.1,0.8-6.4,0.8c-4.9,0-7.5-2.8-7.5-7.7v-2.3c0-4.7,2.5-7.7,7.5-7.7
		c0.6,0,1.6,0.1,2.5,0.2v-5.2c0-0.3,0.3-0.6,0.6-0.6h3.6c0.3,0,0.6,0.3,0.6,0.6v21C-596.5,554.6-596.6,554.8-597.4,555z
		 M-601.3,542.2c-0.7-0.1-1.7-0.1-2.5-0.1c-2.1,0-2.7,1.6-2.7,3.7v2.3c0,2.1,0.6,3.7,2.7,3.7c1,0,1.9-0.1,2.5-0.2V542.2z"/>
</g>
</svg>
