<?xml version="1.0" encoding="utf-8"?>
<!-- Generator: Adobe Illustrator 19.0.1, SVG Export Plug-In . SVG Version: 6.00 Build 0)  -->
<svg version="1.1" id="Calque_1" xmlns="http://www.w3.org/2000/svg" xmlns:xlink="http://www.w3.org/1999/xlink" x="0px" y="0px"
	 viewBox="-928 529.2 29.3 32.4" style="enable-background:new -928 529.2 29.3 32.4;" xml:space="preserve">
<style type="text/css">
	.st0{enable-background:new    ;}
	.st1{fill:#AAB8C2;}
</style>
<g class="st0">
	<path class="st1" d="M-920.6,555.7c-1.6,0-3.9-0.2-5.5-0.7c-0.4-0.1-0.6-0.3-0.6-0.7V552c0-0.3,0.2-0.6,0.6-0.6c0,0,0.1,0,0.1,0
		c1.6,0.2,4.1,0.4,5.1,0.4c1.4,0,1.8-0.4,1.8-1.2c0-0.4-0.3-0.8-1.1-1.3l-3.9-2.2c-1.7-1-2.7-2.5-2.7-4.4c0-3,2-4.7,6.1-4.7
		c2.4,0,3.8,0.3,5.3,0.7c0.4,0.1,0.6,0.3,0.6,0.7v2.4c0,0.4-0.2,0.6-0.5,0.6c-0.1,0-0.1,0-0.1,0c-0.9-0.1-3.5-0.4-5-0.4
		c-1.2,0-1.6,0.2-1.6,0.9c0,0.5,0.3,0.7,0.9,1l3.7,2.1c2.5,1.4,3,3,3,4.6C-914.2,553.5-916.2,555.7-920.6,555.7z"/>
	<path class="st1" d="M-900.6,555.3c-0.8,0.2-2.2,0.4-4,0.4c-4.2,0-7-2.7-7-7.6v-2.5c0-4.9,2.8-7.6,7-7.6c1.8,0,3.1,0.2,4,0.5
		c0.4,0.1,0.6,0.2,0.6,0.7v2.7c0,0.3-0.3,0.5-0.6,0.5c0,0,0,0-0.1,0c-1.1-0.1-2-0.2-3.7-0.2c-1.3,0-2.5,0.8-2.5,3.5v2.5
		c0,2.7,1.1,3.5,2.5,3.5c1.7,0,2.6-0.1,3.7-0.2c0,0,0,0,0.1,0c0.3,0,0.6,0.2,0.6,0.5v2.7C-900,555.1-900.1,555.2-900.6,555.3z"/>
</g>
</svg>
